<svg width="600" height="600" xmlns="http://www.w3.org/2000/svg">
 <g id="Layer_1">
  <title>Layer 1</title>
  <rect rx="60" fill="#449cf4" stroke-width="0" x="13.01615" y="10.45946" width="576" height="576.00002" id="svg_1" stroke="#51b3ff"/>
  <ellipse fill="#ffffff" stroke-width="6" cx="168.65197" cy="533.7129" id="svg_2" rx="18.59459" ry="18.59459" stroke="null"/>
  <ellipse fill="#ffffff" stroke-width="6" cx="475.72653" cy="458.8919" id="svg_4" rx="30.48649" ry="30.48649" stroke="null"/>
  <ellipse stroke="null" fill="#ffffff" stroke-width="6" cx="203.84827" cy="380.71739" id="svg_5" rx="19.04505" ry="19.04505"/>
  <ellipse fill="#ffffff" stroke-width="6" cx="278.88351" cy="349.38855" id="svg_6" rx="13.18919" ry="13.18919" stroke="null"/>
  <ellipse fill="#ffffff" stroke-width="6" cx="341.67244" cy="288.62161" id="svg_7" rx="17.51351" ry="17.51351" stroke="null"/>
  <ellipse fill="#ffffff" stroke-width="6" cx="90.63525" cy="134.97287" id="svg_8" rx="23.45946" ry="23.45946" stroke="null"/>
  <ellipse fill="#ffffff" stroke-width="6" cx="436.86628" cy="169.29719" id="svg_14" rx="25.89189" ry="25.89189" stroke="null"/>
  <ellipse stroke="null" fill="#ffffff" stroke-width="6" cx="313.78904" cy="46.41367" id="svg_15" rx="18.85903" ry="18.85903"/>
  <line fill="none" x1="165.4968" y1="536.21622" x2="477.92923" y2="458.91892" id="svg_16" stroke="#ffffff" stroke-width="16"/>
  <line fill="none" stroke="#ffffff" x1="170" y1="534.59459" x2="204.59459" y2="382.7027" id="svg_17" stroke-width="12"/>
  <line fill="none" stroke="#ffffff" x1="204.41572" y1="382.7027" x2="278.46977" y2="350.27027" id="svg_18" stroke-width="10"/>
  <line fill="none" stroke="#ffffff" x1="278.46977" y1="350.81081" x2="341.71301" y2="290.27027" id="svg_19" stroke-width="10"/>
  <line fill="none" stroke="#ffffff" x1="439.01031" y1="167.02703" x2="342.79409" y2="289.72973" id="svg_20" stroke-width="9"/>
  <line fill="none" stroke="#ffffff" x1="90.9022" y1="137.2973" x2="204.41572" y2="381.62162" id="svg_21" stroke-width="7"/>
  <line fill="none" stroke="#ffffff" x1="341.71301" y1="288.64865" x2="477.92923" y2="460" id="svg_22" stroke-width="6"/>
  <line fill="none" stroke="#ffffff" x1="91.44274" y1="133.15185" x2="433.6049" y2="171.53023" id="svg_23" stroke-width="12"/>
  <line fill="none" stroke="#ffffff" x1="90.9022" y1="134.77347" x2="314.68599" y2="45.58428" id="svg_24" stroke-width="7"/>
  <line fill="none" stroke="#ffffff" x1="314.68599" y1="45.04374" x2="434.68599" y2="167.74645" id="svg_25" stroke-width="11"/>
 </g>

</svg>